<svg width="210" height="95" viewBox="0 0 210 95" fill="none" xmlns="http://www.w3.org/2000/svg">
<g clip-path="url(#clip0_4720_1382)">
<path d="M143.05 93.4789L144.12 89.7689C145.39 85.3589 144.92 81.2889 142.78 78.2889C140.78 75.5289 137.52 73.9089 133.53 73.7189L58.0001 72.7589C57.7631 72.7555 57.5305 72.6948 57.322 72.5821C57.1135 72.4694 56.9354 72.3079 56.8028 72.1114C56.6702 71.915 56.587 71.6894 56.5605 71.4539C56.5339 71.2184 56.5646 70.9799 56.6501 70.7589C56.7785 70.3886 57.0127 70.0643 57.3239 69.826C57.635 69.5878 58.0092 69.4462 58.4001 69.4189L134.66 68.4189C143.66 68.0089 153.5 60.6689 156.93 51.7089L161.27 40.3489C161.393 40.0301 161.454 39.6906 161.45 39.3489C161.445 39.1675 161.425 38.9869 161.39 38.8089C159.022 28.2425 153.266 18.7393 144.999 11.7464C136.731 4.75345 126.405 0.653857 115.592 0.07183C104.779 -0.510197 94.0723 2.45723 85.1018 8.52227C76.1313 14.5873 69.3885 23.4177 65.9001 33.6689C62.197 30.9164 57.7327 29.3774 53.1201 29.2633C48.5075 29.1492 43.9726 30.4654 40.1379 33.0314C36.3032 35.5974 33.3566 39.2873 31.7026 43.5947C30.0486 47.9021 29.7683 52.6158 30.9001 57.0889C26.4065 57.205 21.9889 58.2746 17.9399 60.2268C13.8908 62.179 10.3028 64.9692 7.4134 68.4126C4.52402 71.856 2.39925 75.8741 1.17983 80.2006C-0.0395834 84.5271 -0.325812 89.0634 0.340105 93.5089C0.388283 93.8597 0.561496 94.1814 0.827896 94.4147C1.0943 94.648 1.43597 94.7773 1.7901 94.7789H141.28C141.676 94.7828 142.063 94.6583 142.382 94.4239C142.701 94.1895 142.935 93.8579 143.05 93.4789Z" fill="#F4801F"/>
<path d="M168.22 41.209C167.553 41.209 166.853 41.229 166.12 41.269C166.01 41.2721 165.901 41.2958 165.8 41.339C165.617 41.3995 165.452 41.5042 165.32 41.6438C165.187 41.7833 165.091 41.9534 165.04 42.139L162.04 52.399C160.76 56.809 161.23 60.879 163.38 63.879C164.466 65.2986 165.865 66.4491 167.467 67.2416C169.069 68.034 170.833 68.4472 172.62 68.449L188.73 69.449C188.955 69.4559 189.176 69.5156 189.374 69.6233C189.572 69.731 189.742 69.8836 189.87 70.069C190.006 70.267 190.092 70.4949 190.122 70.7333C190.152 70.9717 190.124 71.2137 190.04 71.439C189.912 71.8092 189.677 72.1336 189.366 72.3718C189.055 72.61 188.681 72.7516 188.29 72.779L171.56 73.779C162.47 74.199 152.68 81.529 149.25 90.479L148.04 93.639C147.989 93.7713 147.971 93.9136 147.986 94.0545C148 94.1953 148.048 94.3307 148.125 94.4496C148.202 94.5685 148.306 94.6675 148.429 94.7386C148.551 94.8098 148.689 94.851 148.83 94.859H206.46C206.811 94.8674 207.155 94.7562 207.435 94.5436C207.715 94.331 207.914 94.0297 208 93.689C209.718 87.5495 209.993 81.0959 208.803 74.8326C207.613 68.5693 204.99 62.6661 201.14 57.5845C197.29 52.5029 192.317 48.3806 186.61 45.5398C180.903 42.699 174.615 41.2168 168.24 41.209H168.22Z" fill="#F9AB41"/>
</g>
<defs>
<clipPath id="clip0_4720_1382">
<rect width="209.51" height="94.74" fill="white" transform="translate(0 0.0585938)"/>
</clipPath>
</defs>
</svg>
